<svg width="328" height="65" viewBox="0 0 328 65" fill="none" xmlns="http://www.w3.org/2000/svg">
<path d="M71.4528 25.7679L67.2966 16.2407C66.944 15.4346 66.3355 14.7442 65.55 14.2588C64.7645 13.7735 63.8381 13.5156 62.8909 13.5186H52.625V11.341C52.625 10.7634 52.3748 10.2095 51.9294 9.80115C51.484 9.39276 50.8799 9.16333 50.25 9.16333H5.125C3.86522 9.16333 2.65704 9.62219 1.76624 10.439C0.875445 11.2557 0.375 12.3635 0.375 13.5186V44.0057C0.375 45.1608 0.875445 46.2686 1.76624 47.0854C2.65704 47.9022 3.86522 48.361 5.125 48.361H10.1719C10.6951 50.2347 11.8835 51.8954 13.5499 53.0814C15.2162 54.2673 17.2656 54.9111 19.375 54.9111C21.4844 54.9111 23.5338 54.2673 25.2001 53.0814C26.8665 51.8954 28.0549 50.2347 28.5781 48.361H43.4219C43.9451 50.2347 45.1335 51.8954 46.7999 53.0814C48.4662 54.2673 50.5156 54.9111 52.625 54.9111C54.7344 54.9111 56.7838 54.2673 58.4501 53.0814C60.1165 51.8954 61.3049 50.2347 61.8281 48.361H66.875C68.1348 48.361 69.343 47.9022 70.2338 47.0854C71.1246 46.2686 71.625 45.1608 71.625 44.0057V26.5845C71.6258 26.3047 71.5673 26.0273 71.4528 25.7679ZM52.625 17.8739H62.8909L65.7409 24.4069H52.625V17.8739ZM5.125 13.5186H47.875V30.9398H5.125V13.5186ZM19.375 50.5387C18.4355 50.5387 17.5172 50.2833 16.736 49.8047C15.9549 49.3261 15.3461 48.6459 14.9866 47.8501C14.6271 47.0543 14.533 46.1786 14.7163 45.3337C14.8995 44.4889 15.3519 43.7128 16.0162 43.1037C16.6805 42.4946 17.5269 42.0798 18.4483 41.9118C19.3697 41.7437 20.3248 41.83 21.1927 42.1596C22.0607 42.4893 22.8025 43.0475 23.3245 43.7637C23.8464 44.4799 24.125 45.322 24.125 46.1834C24.125 47.3385 23.6246 48.4463 22.7338 49.263C21.843 50.0798 20.6348 50.5387 19.375 50.5387ZM43.4219 44.0057H28.5781C28.0549 42.1321 26.8665 40.4713 25.2001 39.2854C23.5338 38.0994 21.4844 37.4557 19.375 37.4557C17.2656 37.4557 15.2162 38.0994 13.5499 39.2854C11.8835 40.4713 10.6951 42.1321 10.1719 44.0057H5.125V35.2951H47.875V38.646C46.7829 39.2248 45.8269 39.9966 45.0625 40.9166C44.2981 41.8366 43.7405 42.8866 43.4219 44.0057ZM52.625 50.5387C51.6855 50.5387 50.7672 50.2833 49.986 49.8047C49.2049 49.3261 48.5961 48.6459 48.2366 47.8501C47.8771 47.0543 47.783 46.1786 47.9663 45.3337C48.1495 44.4889 48.6019 43.7128 49.2662 43.1037C49.9305 42.4946 50.7769 42.0798 51.6983 41.9118C52.6197 41.7437 53.5748 41.83 54.4427 42.1596C55.3107 42.4893 56.0525 43.0475 56.5745 43.7637C57.0964 44.4799 57.375 45.322 57.375 46.1834C57.375 47.3385 56.8746 48.4463 55.9838 49.263C55.093 50.0798 53.8848 50.5387 52.625 50.5387ZM66.875 44.0057H61.8281C61.2986 42.1366 60.1079 40.4813 58.4426 39.2991C56.7772 38.1169 54.7312 37.4746 52.625 37.4728V28.7622H66.875V44.0057Z" fill="#212932"/>
<path d="M111.496 20.776H99.448C98.04 20.776 97.048 21.048 96.472 21.592C95.928 22.136 95.656 23.08 95.656 24.424V29.176H108.184L107.704 35.128H95.656V49H88.984V21.784C88.984 19.256 89.528 17.464 90.616 16.408C91.736 15.352 93.64 14.824 96.328 14.824H111.496V20.776ZM122.817 49L116.577 49.048V12.904H122.817V49ZM150.064 36.76H134.08C134.08 39.256 134.464 41.08 135.232 42.232C136.032 43.384 137.616 43.96 139.984 43.96C141.52 43.96 142.656 43.48 143.392 42.52C144.128 41.528 144.496 40.584 144.496 39.688H150.112C150.112 43.112 149.184 45.624 147.328 47.224C145.504 48.824 143.072 49.624 140.032 49.624C137.024 49.624 134.688 49.192 133.024 48.328C129.6 46.568 127.888 41.896 127.888 34.312C127.888 29.8 128.864 26.504 130.816 24.424C132.768 22.312 135.744 21.256 139.744 21.256C146.688 21.256 150.16 25.112 150.16 32.824C150.16 33.656 150.128 34.968 150.064 36.76ZM134.224 32.488H144.496C144.496 30.376 144.096 28.84 143.296 27.88C142.496 26.92 141.264 26.44 139.6 26.44C137.968 26.44 136.656 26.936 135.664 27.928C134.704 28.888 134.224 30.408 134.224 32.488ZM176.361 36.76H160.377C160.377 39.256 160.761 41.08 161.529 42.232C162.329 43.384 163.913 43.96 166.281 43.96C167.817 43.96 168.953 43.48 169.689 42.52C170.425 41.528 170.793 40.584 170.793 39.688H176.409C176.409 43.112 175.481 45.624 173.625 47.224C171.801 48.824 169.369 49.624 166.329 49.624C163.321 49.624 160.985 49.192 159.321 48.328C155.897 46.568 154.185 41.896 154.185 34.312C154.185 29.8 155.161 26.504 157.113 24.424C159.065 22.312 162.041 21.256 166.041 21.256C172.985 21.256 176.457 25.112 176.457 32.824C176.457 33.656 176.425 34.968 176.361 36.76ZM160.521 32.488H170.793C170.793 30.376 170.393 28.84 169.593 27.88C168.793 26.92 167.561 26.44 165.897 26.44C164.265 26.44 162.953 26.936 161.961 27.928C161.001 28.888 160.521 30.408 160.521 32.488ZM193.825 49H189.937C187.569 49 185.761 48.296 184.513 46.888C183.297 45.48 182.689 43.8 182.689 41.848V27.448H180.049V22.696H182.689V17.32H188.929V22.696H193.345V27.448H188.929V41.464C188.929 42.968 189.649 43.72 191.089 43.72H193.825V49ZM222.508 38.92C222.508 42.152 221.324 44.696 218.956 46.552C216.588 48.376 213.564 49.288 209.884 49.288C206.972 49.288 204.156 48.488 201.436 46.888C200.092 46.056 198.988 44.888 198.124 43.384C197.26 41.848 196.828 40.104 196.828 38.152L202.876 37.864C202.876 39.592 203.612 40.936 205.084 41.896C206.556 42.856 208.188 43.336 209.98 43.336C213.98 43.336 215.98 41.928 215.98 39.112C215.98 36.808 214.62 35.448 211.9 35.032L206.332 34.456C203.548 34.04 201.34 33.048 199.708 31.48C198.076 29.912 197.26 27.656 197.26 24.712C197.26 21.768 198.428 19.336 200.764 17.416C203.1 15.496 206.044 14.536 209.596 14.536C213.18 14.536 216.06 15.448 218.236 17.272C220.412 19.064 221.5 21.384 221.5 24.232L215.548 24.52C215.004 21.736 213.132 20.344 209.932 20.344C207.98 20.344 206.444 20.76 205.324 21.592C204.236 22.424 203.692 23.416 203.692 24.568C203.692 25.688 204.092 26.584 204.892 27.256C205.692 27.896 206.684 28.296 207.868 28.456L213.34 29.032C219.452 29.864 222.508 33.16 222.508 38.92ZM247.892 36.76H231.908C231.908 39.256 232.292 41.08 233.06 42.232C233.86 43.384 235.444 43.96 237.812 43.96C239.348 43.96 240.484 43.48 241.22 42.52C241.956 41.528 242.324 40.584 242.324 39.688H247.94C247.94 43.112 247.012 45.624 245.156 47.224C243.332 48.824 240.9 49.624 237.86 49.624C234.852 49.624 232.516 49.192 230.852 48.328C227.428 46.568 225.716 41.896 225.716 34.312C225.716 29.8 226.692 26.504 228.644 24.424C230.596 22.312 233.572 21.256 237.572 21.256C244.516 21.256 247.988 25.112 247.988 32.824C247.988 33.656 247.956 34.968 247.892 36.76ZM232.052 32.488H242.324C242.324 30.376 241.924 28.84 241.124 27.88C240.324 26.92 239.092 26.44 237.428 26.44C235.796 26.44 234.484 26.936 233.492 27.928C232.532 28.888 232.052 30.408 232.052 32.488ZM274.909 49H268.669V31.48C268.669 29.912 268.349 28.84 267.709 28.264C267.069 27.688 266.173 27.4 265.021 27.4L259.405 29.752V49H253.165V21.592H257.821L259.261 24.856L266.941 21.304C269.085 21.304 270.941 22.104 272.509 23.704C274.109 25.272 274.909 27.576 274.909 30.616V49ZM299.976 41.416V42.136C299.784 44.536 298.76 46.344 296.904 47.56C295.08 48.776 292.792 49.384 290.04 49.384C285.976 49.384 283.128 48.648 281.496 47.176C279.992 45.832 279.24 43.848 279.24 41.224V40.648H284.904C284.904 42.12 285.288 43.128 286.056 43.672C286.824 44.216 288.152 44.488 290.04 44.488C292.6 44.488 293.88 43.56 293.88 41.704C293.88 40.168 293.432 39.144 292.536 38.632C292.12 38.376 291.592 38.184 290.952 38.056L286.104 37.24C281.88 36.568 279.768 33.928 279.768 29.32C279.768 26.76 280.696 24.776 282.552 23.368C284.44 21.928 286.824 21.208 289.704 21.208C296.264 21.208 299.544 24.04 299.544 29.704V30.328H294.12C294.056 28.824 293.656 27.8 292.92 27.256C292.184 26.712 291.144 26.44 289.8 26.44C288.488 26.44 287.496 26.712 286.824 27.256C286.152 27.768 285.816 28.344 285.816 28.984C285.816 30.808 286.552 31.848 288.024 32.104L293.832 33.16C297.928 33.928 299.976 36.68 299.976 41.416ZM325.751 36.76H309.767C309.767 39.256 310.151 41.08 310.919 42.232C311.719 43.384 313.303 43.96 315.671 43.96C317.207 43.96 318.343 43.48 319.079 42.52C319.815 41.528 320.183 40.584 320.183 39.688H325.799C325.799 43.112 324.871 45.624 323.015 47.224C321.191 48.824 318.759 49.624 315.719 49.624C312.711 49.624 310.375 49.192 308.711 48.328C305.287 46.568 303.575 41.896 303.575 34.312C303.575 29.8 304.551 26.504 306.503 24.424C308.455 22.312 311.431 21.256 315.431 21.256C322.375 21.256 325.847 25.112 325.847 32.824C325.847 33.656 325.815 34.968 325.751 36.76ZM309.911 32.488H320.183C320.183 30.376 319.783 28.84 318.983 27.88C318.183 26.92 316.951 26.44 315.287 26.44C313.655 26.44 312.343 26.936 311.351 27.928C310.391 28.888 309.911 30.408 309.911 32.488Z" fill="#212932"/>
</svg>
